HIERARCHY
ROOT Hips
{
	OFFSET 0.000000 0.000000 0.000000
	CHANNELS 6 Xposition Yposition Zposition Zrotation Yrotation Xrotation 
	JOINT LHipJoint
	{
		OFFSET 0.000000 0.000000 0.000000
		CHANNELS 3 Zrotation Yrotation Xrotation
		JOINT LeftUpLeg
		{
			OFFSET 1.363060 -1.794630 0.839290
			CHANNELS 3 Zrotation Yrotation Xrotation
			JOINT LeftLeg
			{
				OFFSET 2.448110 -6.726130 0.000000
				CHANNELS 3 Zrotation Yrotation Xrotation
				JOINT LeftFoot
				{
					OFFSET 2.562200 -7.039590 0.000000
					CHANNELS 3 Zrotation Yrotation Xrotation
					JOINT LeftToeBase
					{
						OFFSET 0.157640 -0.433110 2.322550
						CHANNELS 3 Zrotation Yrotation Xrotation
						End Site
						{
							OFFSET 0.000000 0.000000 0.000000
						}
					}
				}
			}
		}
	}
	JOINT RHipJoint
	{
		OFFSET 0.000000 0.000000 0.000000
		CHANNELS 3 Zrotation Yrotation Xrotation
		JOINT RightUpLeg
		{
			OFFSET -1.305520 -1.794630 0.839290
			CHANNELS 3 Zrotation Yrotation Xrotation
			JOINT RightLeg
			{
				OFFSET -2.542530 -6.985550 0.000000
				CHANNELS 3 Zrotation Yrotation Xrotation
				JOINT RightFoot
				{
					OFFSET -2.568260 -7.056230 0.000000
					CHANNELS 3 Zrotation Yrotation Xrotation
					JOINT RightToeBase
					{
						OFFSET -0.164730 -0.452590 2.363150
						CHANNELS 3 Zrotation Yrotation Xrotation
						End Site
						{
							OFFSET 0.000000 0.000000 0.000000
						}
					}
				}
			}
		}
	}
	JOINT LowerBack
	{
		OFFSET 0.000000 0.000000 0.000000
		CHANNELS 3 Zrotation Yrotation Xrotation
		JOINT Spine
		{
			OFFSET 0.028270 2.035590 -0.193380
			CHANNELS 3 Zrotation Yrotation Xrotation
			JOINT Spine1
			{
				OFFSET 0.056720 2.048850 -0.042750
				CHANNELS 3 Zrotation Yrotation Xrotation
				JOINT Neck
				{
					OFFSET 0.000000 0.000000 0.000000
					CHANNELS 3 Zrotation Yrotation Xrotation
					JOINT Neck1
					{
						OFFSET -0.054170 1.746240 0.172020
						CHANNELS 3 Zrotation Yrotation Xrotation
						JOINT Head
						{
							OFFSET 0.104070 1.761360 -0.123970
							CHANNELS 3 Zrotation Yrotation Xrotation
							End Site
							{
								OFFSET 0.000000 0.000000 0.000000
							}
						}
					}
				}
				JOINT LeftShoulder
				{
					OFFSET 0.000000 0.000000 0.000000
					CHANNELS 3 Zrotation Yrotation Xrotation
					JOINT LeftArm
					{
						OFFSET 3.362410 1.200890 -0.311210
						CHANNELS 3 Zrotation Yrotation Xrotation
						JOINT LeftForeArm
						{
							OFFSET 4.983000 -0.000000 -0.000000
							CHANNELS 3 Zrotation Yrotation Xrotation
							JOINT LeftHand
							{
								OFFSET 3.483560 -0.000000 -0.000000
								CHANNELS 3 Zrotation Yrotation Xrotation
								JOINT LeftFingerBase
								{
									OFFSET 0.000000 0.000000 0.000000
									CHANNELS 3 Zrotation Yrotation Xrotation
									JOINT LeftHandIndex1
									{
										OFFSET 0.715260 -0.000000 -0.000000
										CHANNELS 3 Zrotation Yrotation Xrotation
										End Site
										{
											OFFSET 0.000000 0.000000 0.000000
										}
									}
								}
								JOINT LThumb
								{
									OFFSET 0.000000 0.000000 0.000000
									CHANNELS 3 Zrotation Yrotation Xrotation
									End Site
									{
										OFFSET 0.000000 0.000000 0.000000
									}
								}
							}
						}
					}
				}
				JOINT RightShoulder
				{
					OFFSET 0.000000 0.000000 0.000000
					CHANNELS 3 Zrotation Yrotation Xrotation
					JOINT RightArm
					{
						OFFSET -3.136600 1.374050 -0.404650
						CHANNELS 3 Zrotation Yrotation Xrotation
						JOINT RightForeArm
						{
							OFFSET -5.241900 -0.000000 -0.000000
							CHANNELS 3 Zrotation Yrotation Xrotation
							JOINT RightHand
							{
								OFFSET -3.444170 -0.000000 -0.000000
								CHANNELS 3 Zrotation Yrotation Xrotation
								JOINT RightFingerBase
								{
									OFFSET 0.000000 0.000000 0.000000
									CHANNELS 3 Zrotation Yrotation Xrotation
									JOINT RightHandIndex1
									{
										OFFSET -0.622530 -0.000000 -0.000000
										CHANNELS 3 Zrotation Yrotation Xrotation
										End Site
										{
											OFFSET 0.000000 0.000000 0.000000
										}
									}
								}
								JOINT RThumb
								{
									OFFSET 0.000000 0.000000 0.000000
									CHANNELS 3 Zrotation Yrotation Xrotation
									End Site
									{
										OFFSET 0.000000 0.000000 0.000000
									}
								}
							}
						}
					}
				}
			}
		}
	}
}
MOTION
Frames: 6
Frame Time: 0.008333
0.648381 18.359554 9.959362 -10.441522 1.034025 14.960268 6.708255 4.560066 -2.242897 -20.577047 -47.137313 22.060945 -3.906032 -2.499993 -3.689291 -14.753009 46.010511 -33.922466 0.509800 4.576900 12.705700 0.278285 -4.490170 -0.512160 24.530330 27.499511 0.538459 3.654599 -0.625684 2.156620 8.333035 -26.502981 -3.088018 -0.001200 -0.227700 0.625700 -2.236007 1.985208 7.522284 23.406971 8.256283 -29.741874 -12.100021 -1.427704 -8.491616 -22.873313 -12.469650 -2.567405 18.454356 -19.456207 16.638185 3.927500 -8.820700 6.129500 -9.834292 -6.296486 1.742223 -88.214692 14.300290 1.164124 9.293342 -10.236628 -1.424994 0.258182 2.127204 35.204332 17.586914 -11.328977 -4.408100 -7.125000 0.000000 0.000000 -6.003600 16.097500 4.126600 11.041663 7.310373 1.975471 79.215346 -15.573600 2.129976 -10.032515 13.724651 -1.655528 1.148672 1.375377 48.120988 8.666997 -28.830141 -4.572100 7.125000 0.000000 0.000000 42.430900 -55.280100 -12.321600 
0.648276 18.359344 9.959046 -10.418227 1.022351 14.958092 6.709181 4.557336 -2.247006 -20.590582 -47.071102 22.027252 -3.903798 -2.499970 -3.689753 -14.814704 46.073063 -33.809104 0.487800 4.478500 12.426900 0.273161 -4.487219 -0.510831 24.495859 27.417829 0.504839 3.653461 -0.620390 2.140027 8.314161 -26.462035 -2.977099 -0.000400 -0.129000 0.354400 -2.261676 1.991186 7.543162 23.378293 8.257901 -29.768258 -12.074430 -1.423040 -8.504218 -22.874336 -12.472011 -2.585482 18.432676 -19.454786 16.666594 3.923400 -8.819500 6.136600 -9.829668 -6.293017 1.743524 -88.221061 14.328125 1.256668 9.309713 -10.257822 -1.430970 0.260016 2.131901 35.009724 17.582722 -11.436797 -4.443600 -7.125000 0.000000 0.000000 -6.012700 15.977100 4.148600 11.044252 7.309363 1.980354 79.195294 -15.561397 1.918260 -10.026806 13.720053 -1.653754 1.143697 1.380427 48.351479 8.881417 -28.723681 -4.675600 7.125000 0.000000 0.000000 42.536300 -55.151800 -12.218600 
0.647749 18.359870 9.957465 -10.428711 1.017023 14.972709 6.701618 4.552625 -2.252469 -20.569507 -47.112915 22.033752 -3.905839 -2.497074 -3.684668 -14.760102 46.019654 -33.914159 0.502600 4.544700 12.614400 0.269006 -4.490573 -0.521552 24.523215 27.472102 0.520170 3.653875 -0.623134 2.141243 8.334780 -26.522358 -3.005452 -0.002700 -0.338000 0.928700 -2.238341 2.005383 7.611698 23.318522 8.272135 -29.867957 -12.050554 -1.417386 -8.536023 -22.753332 -12.480087 -2.582831 18.218532 -19.437651 16.644939 3.872200 -8.823000 6.115300 -9.823036 -6.288740 1.750335 -88.213929 14.372252 1.377544 9.317826 -10.268014 -1.430551 0.251368 2.121379 34.856979 17.532261 -11.376469 -4.406500 -7.125000 0.000000 0.000000 -6.048600 16.056300 4.163300 11.031385 7.304429 1.986088 79.215041 -15.585451 1.748241 -10.027184 13.723976 -1.654123 1.142936 1.381020 48.548713 8.989490 -28.692599 -4.730600 7.125000 0.000000 0.000000 42.609100 -55.104100 -12.192600 
0.647011 18.360502 9.955675 -10.482856 1.023644 14.994925 6.702861 4.550433 -2.252604 -20.461117 -47.145432 21.984814 -3.906691 -2.496348 -3.685982 -14.711932 45.964392 -33.990694 0.523300 4.636200 12.873900 0.276579 -4.493070 -0.529144 24.584096 27.569366 0.533314 3.654497 -0.626155 2.144628 8.354279 -26.577250 -3.077198 -0.017700 -0.859100 2.361100 -2.220294 2.014823 7.621300 23.362889 8.296424 -29.897432 -12.056389 -1.421117 -8.555685 -22.622554 -12.473653 -2.622619 17.987625 -19.392344 16.677305 3.815200 -8.807900 6.106500 -9.827650 -6.288351 1.751999 -88.216640 14.396914 1.531780 9.336056 -10.289340 -1.431068 0.239574 2.103243 34.735133 17.461395 -11.240608 -4.337000 -7.125000 0.000000 0.000000 -6.097500 16.225000 4.174900 11.004664 7.305193 1.993235 79.211440 -15.575799 1.679660 -10.003362 13.695160 -1.648332 1.144905 1.378969 48.632788 9.013309 -28.688733 -4.742200 7.125000 0.000000 0.000000 42.626500 -55.096400 -12.190500 
0.642482 18.363347 9.957465 -10.032949 0.815098 15.190605 6.619274 4.554150 -2.288572 -20.931248 -47.374964 22.018311 -3.909742 -2.471923 -3.662778 -14.740060 46.135498 -34.338918 0.532400 4.675400 12.985100 0.229251 -4.452352 -0.609160 24.012017 27.781493 0.396327 3.656573 -0.626071 2.114162 8.412567 -26.682837 -3.059245 -0.034200 -1.192900 3.279800 -2.508724 2.013134 7.570831 22.582867 8.207566 -30.360946 -11.660279 -1.315207 -8.283974 -22.352017 -12.482586 -2.554162 17.897604 -19.402954 16.663176 3.767600 -8.812100 6.082000 -9.779957 -6.315348 1.791415 -88.043208 14.519211 2.883387 9.450918 -10.403957 -1.442161 0.139816 2.033319 33.668085 17.384335 -10.559087 -4.068800 -7.125000 0.000000 0.000000 -6.130700 17.040600 4.088600 11.138524 7.291261 2.023823 79.112424 -15.466616 1.796929 -9.812239 13.441795 -1.599903 1.154890 1.368313 48.430357 8.835382 -28.626567 -4.631500 7.125000 0.000000 0.000000 42.396900 -55.090100 -12.098200 
0.633844 18.373565 9.977164 -9.928605 0.821354 15.755392 6.535829 4.560201 -2.343051 -20.597112 -47.831774 21.548187 -3.889546 -2.440781 -3.717844 -14.924388 46.456937 -34.465786 0.514300 4.596400 12.761000 0.199069 -4.366168 -0.734301 23.761540 27.975226 -0.008506 3.659738 -0.609419 2.033895 8.462888 -26.809496 -3.097428 -0.037000 -1.241900 3.414500 -2.463153 1.981781 6.902673 21.776251 8.184418 -31.041452 -11.409860 -1.196876 -7.529174 -21.959210 -12.571154 -2.326971 17.814393 -19.520133 16.435373 3.699800 -8.872800 6.031800 -9.699581 -6.414250 1.840074 -87.716614 14.695613 5.280676 9.628455 -10.593906 -1.462064 -0.031045 1.907982 31.755339 17.274747 -9.350113 -3.603800 -7.125000 0.000000 0.000000 -6.178800 18.479200 3.924700 11.251435 7.312601 2.057323 79.074280 -15.256236 2.083178 -9.521902 13.028187 -1.528131 1.176681 1.343225 47.899023 8.411910 -28.541103 -4.377500 7.125000 0.000000 0.000000 41.904500 -55.121400 -11.950600 
